<svg width="13" height="8" viewBox="0 0 13 8" fill="none" xmlns="http://www.w3.org/2000/svg">
<path d="M8.624 7.89644C8.21867 7.89644 7.888 7.78444 7.632 7.56044C7.376 7.32578 7.248 7.03244 7.248 6.68044C7.248 6.17911 7.424 5.77911 7.776 5.48044C8.128 5.18178 8.58667 5.03244 9.152 5.03244C9.888 5.03244 10.6453 4.76578 11.424 4.23244L9.44 4.29644C9.13067 4.30711 8.76267 4.33911 8.336 4.39244C7.92 4.44578 7.49333 4.51511 7.056 4.60044C6.61867 4.68578 6.208 4.77644 5.824 4.87244L4.528 5.20844C4.10133 5.31511 3.73867 5.40044 3.44 5.46444C3.14133 5.52844 2.90667 5.58178 2.736 5.62444C2.56533 5.66711 2.416 5.69911 2.288 5.72044C2.17067 5.73111 2.06933 5.73644 1.984 5.73644C1.51467 5.73644 1.12 5.62978 0.8 5.41644C0.490667 5.20311 0.224 4.75511 0 4.07244C0.213333 3.40044 0.474667 2.95778 0.784 2.74444C1.104 2.52044 1.504 2.40844 1.984 2.40844C2.06933 2.40844 2.18133 2.41911 2.32 2.44044C2.45867 2.46178 2.62933 2.49378 2.832 2.53644C3.024 2.57911 3.30667 2.64311 3.68 2.72844C4.05333 2.81378 4.51733 2.93111 5.072 3.08044C6.18133 3.36844 7.06667 3.56044 7.728 3.65644C8.05867 3.69911 8.33067 3.73644 8.544 3.76844C8.75733 3.80044 8.97067 3.82178 9.184 3.83244C9.408 3.84311 9.69067 3.85378 10.032 3.86444C10.3733 3.87511 10.8373 3.89111 11.424 3.91244C10.6453 3.37911 9.888 3.11244 9.152 3.11244C8.58667 3.11244 8.128 2.96311 7.776 2.66444C7.424 2.36578 7.248 1.96578 7.248 1.46444C7.248 1.11244 7.37067 0.824444 7.616 0.600444C7.872 0.365777 8.208 0.248444 8.624 0.248444C8.93333 0.248444 9.232 0.35511 9.52 0.568443C9.81867 0.781777 10.144 1.16578 10.496 1.72044C10.848 2.27511 11.2107 2.70711 11.584 3.01644C11.9573 3.32578 12.3947 3.64578 12.896 3.97644V4.16844C12.4053 4.49911 11.968 4.81911 11.584 5.12844C11.2 5.43778 10.8267 5.87511 10.464 6.44044C10.1013 6.99511 9.78133 7.37911 9.504 7.59244C9.22667 7.79511 8.93333 7.89644 8.624 7.89644Z" fill="#E08B55"/>
</svg>
