<svg width="14" height="11" viewBox="0 0 14 11" fill="none" xmlns="http://www.w3.org/2000/svg">
<path d="M10.1562 3.76562C9.92188 3.57812 9.57031 3.625 9.35938 3.85938C9.17188 4.09375 9.19531 4.44531 9.45312 4.65625C9.71094 4.86719 9.875 5.17188 9.875 5.5C9.875 5.85156 9.71094 6.15625 9.45312 6.36719C9.19531 6.57812 9.17188 6.92969 9.35938 7.16406C9.47656 7.30469 9.64062 7.375 9.80469 7.375C9.92188 7.375 10.0625 7.32812 10.1562 7.25781C10.6953 6.8125 11 6.17969 11 5.5C11 4.84375 10.6953 4.21094 10.1562 3.76562ZM11.5859 2.03125C11.3281 1.84375 10.9766 1.89062 10.7891 2.125C10.5781 2.35938 10.625 2.71094 10.8594 2.92188C11.6562 3.55469 12.125 4.51562 12.125 5.5C12.125 6.50781 11.6562 7.46875 10.8594 8.10156C10.625 8.3125 10.5781 8.66406 10.7891 8.89844C10.9062 9.03906 11.0469 9.10938 11.2109 9.10938C11.3516 9.10938 11.4688 9.0625 11.5859 8.99219C12.6406 8.125 13.25 6.85938 13.25 5.5C13.25 4.16406 12.6406 2.89844 11.5859 2.03125ZM7.55469 0.320312C7.27344 0.203125 6.96875 0.25 6.73438 0.460938L3.57031 3.25H1.625C0.992188 3.25 0.5 3.76562 0.5 4.375V6.60156C0.5 7.21094 0.992188 7.70312 1.625 7.70312H3.57031L6.73438 10.5156C6.875 10.7031 7.0625 10.75 7.25 10.75C7.34375 10.75 7.4375 10.75 7.55469 10.7031C7.8125 10.5625 8 10.3047 8 10V1C8 0.71875 7.8125 0.4375 7.55469 0.320312Z" fill="#7A6D63"/>
</svg>
