<svg width="792" height="259" viewBox="0 0 792 259" fill="none" xmlns="http://www.w3.org/2000/svg">
<path d="M437.476 0C384.637 0 342.987 29.7831 331.254 83.1671C320.336 29.2387 278.998 0 224.643 0C166.365 0 121.724 36.1985 115.857 100.314V5.75443C115.857 3.16235 114.653 1.8663 112.244 1.8663H104.901C103.898 1.76498 102.895 2.05776 102.104 2.68281C101.56 3.22715 97.9075 5.52115 97.9075 5.52115C97.9075 5.52115 83.4934 15.2026 69.2346 22.9011C55.994 30.4021 41.873 36.2271 27.1965 40.2422L3.61325 46.4243C3.61325 46.4243 0 47.5518 0 49.7292V57.0389C0 59.2162 1.20442 60.3438 3.61325 60.3438H27.3908V189.08C27.5255 193.022 27.027 196.96 25.9144 200.744C24.772 203.661 22.7482 206.149 20.1254 207.859C15.4463 210.703 10.4693 213.024 5.2839 214.78C4.30774 214.984 3.43717 215.532 2.83095 216.324C2.22473 217.116 1.92324 218.1 1.98146 219.096V222.984C1.98146 225.201 3.30244 226.289 5.86668 226.289H137.226C139.868 226.289 141.111 225.201 141.111 222.984V219.096C141.169 218.1 140.868 217.116 140.262 216.324C139.655 215.532 138.785 214.984 137.809 214.78C133.012 213.197 128.38 211.152 123.977 208.676C121.145 207.098 118.887 204.661 117.528 201.716C116.103 197.636 115.483 193.318 115.702 189.002V129.825C121.569 193.318 165.355 228 224.488 228C277.56 228 319.093 198.683 330.71 145.027C341.899 198.839 383.199 228 437.476 228C500.339 228 547 186.941 547 112.989C547 40.0477 501.193 0 437.476 0ZM278.182 144.638C276.387 146.186 274.28 147.326 272.004 147.982C270.507 148.391 269.167 149.239 268.156 150.417C267.145 151.596 266.51 153.049 266.332 154.592L265.943 157.625C263.224 166.14 254.754 165.907 246.012 163.146C236.182 160.035 234.356 146.777 230.16 138.456C229.733 137.64 229.15 136.707 228.529 135.696C230.083 149.382 220.758 190.13 215.902 203.233C215.163 205.332 204.479 202.96 209.491 201.25C224.294 164.001 224.527 141.722 224.721 131.263C224.41 131.263 224.721 131.263 224.333 131.535C222.998 134.382 222.145 137.43 221.807 140.556C219.359 152.92 214.814 154.009 209.413 160.347C204.013 166.684 194.688 169.367 189.987 164.235C188.167 162.114 186.899 159.577 186.296 156.847C186.089 155.849 185.578 154.939 184.834 154.243C184.09 153.547 183.148 153.098 182.139 152.959C180.372 153.003 178.618 152.644 177.011 151.909C167.492 146.427 169.473 139.195 172.232 130.447C175.34 120.61 187.773 120.221 196.126 116.061C198.932 114.511 201.62 112.756 204.168 110.812C200.967 109.16 197.491 108.106 193.911 107.701C181.828 106.807 174.485 103.113 168.735 94.4816C166.583 91.7917 165.541 88.3799 165.823 84.9458C166.105 81.5117 167.689 78.3156 170.25 76.013C172.466 74.0733 175.141 72.7346 178.021 72.1248C178.935 71.9208 179.763 71.4367 180.39 70.7399C181.017 70.043 181.411 69.1681 181.517 68.2367C181.776 66.5567 182.139 64.8945 182.605 63.2599C185.208 53.3063 194.805 53.734 203.547 56.5334C213.337 59.6439 214.27 74.1078 218.427 82.3895C219.962 85.2057 221.716 87.8968 223.672 90.4379C225.276 87.2178 226.314 83.7456 226.741 80.1733C228.062 67.1869 233.113 59.8383 241.233 55.0171C248.188 50.8956 253.86 51.3622 258.406 56.4945C260.167 58.5396 261.406 60.9809 262.019 63.6098C262.303 64.6736 262.893 65.6307 263.714 66.3632C264.536 67.0956 265.554 67.5712 266.643 67.7312C267.847 67.7312 269.401 68.2367 271.383 68.7422C281.329 71.3472 282.067 81.4175 277.638 89.4659C271.577 100.586 258.6 101.13 252.267 104.591C249.467 106.15 246.78 107.904 244.225 109.84C247.443 111.452 250.911 112.503 254.482 112.95C267.458 114.233 275.851 118.044 280.629 126.17C282.588 128.993 283.433 132.442 283.003 135.852C282.572 139.261 280.897 142.391 278.298 144.638H278.182ZM488.489 123.915C498.046 130.602 503.019 146.349 485.924 162.99C468.829 179.632 452.706 174.655 445.829 165.479C441.672 159.802 438.874 155.059 437.359 142.15C435.844 155.136 433.085 159.88 428.928 165.479C422.051 174.771 405.928 179.632 388.833 162.99C371.738 146.349 376.711 130.602 386.268 124.109C392.057 120.027 397.924 117.344 411.367 115.866C398.002 114.389 391.941 111.706 386.268 107.623C376.711 100.936 371.738 85.2278 388.833 68.7422C405.928 52.2565 422.051 57.0778 428.928 66.2149C433.085 71.8915 435.844 77.8793 437.359 91.0989C438.874 78.0737 441.672 71.8915 445.829 66.2149C452.706 56.9222 468.868 52.0621 485.924 68.7422C502.98 85.4222 498.046 101.091 488.489 107.623C482.7 111.706 477.455 114.389 464.089 115.866C477.571 117.149 482.816 119.832 488.605 123.915H488.489Z" fill="#007154"/>
<path d="M222 258H221.5V258.5H222V258ZM224.667 214.5C224.667 213.027 223.473 211.833 222 211.833C220.527 211.833 219.333 213.027 219.333 214.5C219.333 215.973 220.527 217.167 222 217.167C223.473 217.167 224.667 215.973 224.667 214.5ZM446 257.5H222V258.5H446V257.5ZM222.5 258V214.5H221.5V258H222.5Z" fill="#BCA986"/>
<path d="M791 258V258.5H791.5V258H791ZM445 258H444.5V258.5H445V258ZM447.667 215C447.667 213.527 446.473 212.333 445 212.333C443.527 212.333 442.333 213.527 442.333 215C442.333 216.473 443.527 217.667 445 217.667C446.473 217.667 447.667 216.473 447.667 215ZM791 257.5L445 257.5V258.5L791 258.5V257.5ZM445.5 258V215H444.5V258H445.5ZM791.5 258V245.5H790.5V258H791.5Z" fill="#BCA986"/>
</svg>
