<svg width="153" height="126" viewBox="0 0 153 126" fill="none" xmlns="http://www.w3.org/2000/svg">
<g clip-path="url(#clip0_2494_8721)">
<path d="M105.237 35.3549C115.226 45.0771 112.31 54.2646 106.729 58.2021C103.326 60.584 100.278 62.1542 92.4666 63.0194C100.278 63.8799 103.331 65.45 106.729 67.8417C112.31 71.7306 115.226 80.9375 105.237 90.6889C95.2472 100.44 85.7923 97.5771 81.7868 92.1472C79.3562 88.8368 77.7229 86.0708 76.8333 78.4632C75.9437 86.0708 74.3298 88.8368 71.8847 92.1472C67.8597 97.5771 58.4291 100.411 48.4347 90.6889C38.4402 80.9667 41.3472 71.75 46.9375 67.8222C50.3402 65.4354 53.8062 63.8604 61.6229 63C53.8062 62.1347 50.3354 60.5694 46.9375 58.1826C41.3472 54.25 38.4305 45.0819 48.4347 35.3549C58.4389 25.6278 67.8791 28.4618 71.8847 33.8965C74.3298 37.2069 75.9437 40.8187 76.8333 48.4167C77.7229 40.809 79.3368 37.1972 81.7868 33.8868C85.8069 28.4521 95.2423 25.6229 105.237 35.3451" fill="#BCA986"/>
</g>
<defs>
<clipPath id="clip0_2494_8721">
<rect width="70" height="68.1431" fill="white" transform="translate(41.8333 28.9285)"/>
</clipPath>
</defs>
</svg>
