<svg width="153" height="126" viewBox="0 0 153 126" fill="none" xmlns="http://www.w3.org/2000/svg">
<g clip-path="url(#clip0_2494_8427)">
<path d="M102.368 85.6187C105.027 85.0224 107.379 83.4797 108.985 81.2781C110.591 79.0765 111.342 76.3662 111.099 73.6519C110.855 70.9376 109.633 68.4045 107.66 66.5244C105.687 64.6444 103.098 63.5455 100.375 63.4326C99.8889 63.4326 92.4465 63.384 92.4465 63.384C92.3921 63.3901 92.337 63.3847 92.2849 63.3681C92.2328 63.3514 92.1847 63.324 92.1439 63.2875C92.1031 63.251 92.0704 63.2063 92.0481 63.1564C92.0257 63.1064 92.0142 63.0523 92.0142 62.9976C92.0142 62.9428 92.0257 62.8887 92.0481 62.8388C92.0704 62.7888 92.1031 62.7441 92.1439 62.7076C92.1847 62.6712 92.2328 62.6437 92.2849 62.6271C92.337 62.6104 92.3921 62.605 92.4465 62.6111C92.4465 62.6111 99.8208 62.6111 100.326 62.5674C103.058 62.4734 105.662 61.3862 107.649 59.5095C109.637 57.6329 110.872 55.0958 111.122 52.3738C111.373 49.6519 110.622 46.932 109.01 44.7242C107.398 42.5164 105.037 40.9722 102.368 40.3812C101.489 40.1925 100.684 39.754 100.048 39.1185C99.4126 38.4829 98.9741 37.6774 98.7854 36.7986C98.189 34.1394 96.6463 31.7877 94.4448 30.1816C92.2432 28.5754 89.5328 27.8242 86.8185 28.0681C84.1042 28.3119 81.5711 29.5341 79.6911 31.5069C77.811 33.4798 76.7122 36.0688 76.5993 38.7917C76.5993 39.3021 76.5507 46.7201 76.5507 46.7201C76.5507 47.1625 75.7777 47.1625 75.7777 46.7201C75.7777 46.7201 75.7777 39.3458 75.734 38.8403C75.64 36.1084 74.5528 33.5047 72.6762 31.5172C70.7996 29.5297 68.2624 28.2949 65.5405 28.0444C62.8185 27.794 60.0987 28.5449 57.8908 30.1566C55.683 31.7682 54.1389 34.1298 53.5479 36.7986C53.3591 37.6774 52.9207 38.4829 52.2851 39.1185C51.6496 39.754 50.844 40.1925 49.9652 40.3812C47.3061 40.9776 44.9544 42.5203 43.3482 44.7219C41.742 46.9235 40.9909 49.6338 41.2347 52.3481C41.4785 55.0624 42.7007 57.5955 44.6736 59.4756C46.6464 61.3556 49.2354 62.4545 51.9583 62.5674C52.4687 62.5674 59.8868 62.616 59.8868 62.616C59.9412 62.6099 59.9962 62.6153 60.0484 62.6319C60.1005 62.6486 60.1486 62.676 60.1894 62.7125C60.2302 62.749 60.2628 62.7937 60.2852 62.8436C60.3075 62.8936 60.3191 62.9477 60.3191 63.0024C60.3191 63.0572 60.3075 63.1113 60.2852 63.1612C60.2628 63.2112 60.2302 63.2559 60.1894 63.2924C60.1486 63.3288 60.1005 63.3563 60.0484 63.3729C59.9962 63.3896 59.9412 63.395 59.8868 63.3889C59.8868 63.3889 52.5125 63.3889 52.0069 63.4326C49.2751 63.5266 46.6713 64.6138 44.6838 66.4905C42.6963 68.3671 41.4616 70.9042 41.2111 73.6262C40.9606 76.3481 41.7116 79.068 43.3232 81.2758C44.9348 83.4836 47.2964 85.0278 49.9652 85.6187C50.844 85.8075 51.6496 86.246 52.2851 86.8815C52.9207 87.5171 53.3591 88.3226 53.5479 89.2014C54.1443 91.8605 55.6869 94.2122 57.8885 95.8184C60.0901 97.4246 62.8005 98.1758 65.5148 97.9319C68.229 97.6881 70.7621 96.4659 72.6422 94.4931C74.5223 92.5202 75.6211 89.9312 75.734 87.2083C75.734 86.7222 75.7826 79.2799 75.7826 79.2799C75.7826 78.8424 76.5555 78.8424 76.5555 79.2799C76.5555 79.2799 76.5555 86.6542 76.5993 87.1597C76.6933 89.8916 77.7805 92.4953 79.6571 94.4828C81.5337 96.4703 84.0708 97.7051 86.7928 97.9555C89.5148 98.206 92.2346 97.4551 94.4424 95.8434C96.6503 94.2318 98.1944 91.8702 98.7854 89.2014C98.9741 88.3226 99.4126 87.5171 100.048 86.8815C100.684 86.246 101.489 85.8075 102.368 85.6187Z" fill="#BCA986"/>
</g>
<defs>
<clipPath id="clip0_2494_8427">
<rect width="70" height="70" fill="white" transform="translate(41.1667 28)"/>
</clipPath>
</defs>
</svg>
