<svg width="153" height="126" viewBox="0 0 153 126" fill="none" xmlns="http://www.w3.org/2000/svg">
<g clip-path="url(#clip0_2494_8423)">
<path d="M111.615 72.8656C110.346 67.1003 103.813 62.8372 96.7641 63.9746C96.7133 63.9831 96.6612 63.9804 96.6116 63.9667C96.5619 63.953 96.5158 63.9287 96.4764 63.8954C96.4371 63.8621 96.4055 63.8206 96.3839 63.7739C96.3622 63.7271 96.351 63.6762 96.351 63.6246V63.683C96.3514 63.6331 96.3622 63.584 96.3827 63.5385C96.4031 63.4931 96.4328 63.4524 96.4698 63.419C96.5069 63.3857 96.5504 63.3603 96.5977 63.3447C96.645 63.329 96.6951 63.3234 96.7447 63.3281C97.2179 63.377 97.6933 63.4014 98.169 63.401C105.193 63.4108 110.861 57.3635 110.861 50.9226C110.861 45.2837 106.486 40.5781 100.707 39.499C100.643 39.4872 100.583 39.4584 100.534 39.4156C100.486 39.3728 100.449 39.3176 100.429 39.2559C98.2225 32.324 91.2954 28.2358 84.7037 30.0733C82.6674 30.6678 80.8163 31.7717 79.3253 33.2806C77.8343 34.7895 76.7525 36.6536 76.1822 38.6969C76.1619 38.7723 76.1174 38.8389 76.0554 38.8864C75.9935 38.9339 75.9176 38.9597 75.8395 38.9597C75.7614 38.9597 75.6855 38.9339 75.6236 38.8864C75.5616 38.8389 75.517 38.7723 75.4968 38.6969C74.1308 33.9038 70.2225 30.2385 65.2641 29.6795C58.9982 28.9746 53.2669 33.5052 51.8961 39.9802C51.8838 40.0447 51.8535 40.1045 51.8088 40.1526C51.7641 40.2008 51.7067 40.2353 51.6433 40.2524C45.4065 42.0267 41.1822 47.3837 41.9162 53.076C42.7378 59.4635 49.4801 63.858 56.9857 62.8955H57.1364C57.1867 62.8893 57.2378 62.8939 57.2863 62.9088C57.3348 62.9238 57.3796 62.9489 57.4177 62.9824C57.4558 63.0159 57.4864 63.0571 57.5074 63.1033C57.5285 63.1495 57.5395 63.1996 57.5398 63.2503C57.5401 63.2993 57.53 63.3478 57.5103 63.3926C57.4907 63.4375 57.4618 63.4777 57.4256 63.5107C57.3894 63.5437 57.3467 63.5687 57.3002 63.5841C57.2538 63.5996 57.2046 63.6051 57.1558 63.6003C56.7815 63.5712 56.3975 63.5566 56.0135 63.5566C48.994 63.5323 43.2919 68.7483 43.2919 75.1892C43.2919 80.8719 47.7204 85.6066 53.5829 86.6371C53.6512 86.6498 53.7145 86.6816 53.7653 86.729C53.8161 86.7764 53.8523 86.8372 53.8697 86.9045C55.1239 91.8871 59.11 95.7517 64.2093 96.3253C70.0426 96.9767 75.3898 93.1121 77.2273 87.3663C77.2502 87.2985 77.2931 87.2392 77.3503 87.1962C77.4075 87.1532 77.4764 87.1285 77.5479 87.1253C77.6194 87.1222 77.6902 87.1407 77.751 87.1785C77.8117 87.2163 77.8597 87.2716 77.8885 87.3371C80.4697 93.5642 86.9933 97.108 93.2107 95.3726C95.2745 94.77 97.1478 93.6448 98.6492 92.1059C100.151 90.567 101.229 88.6666 101.781 86.5885C101.797 86.5311 101.827 86.4786 101.868 86.4361C101.91 86.3936 101.962 86.3624 102.019 86.3455C108.64 84.2892 112.859 78.4996 111.615 72.8656Z" fill="#BCA986"/>
</g>
<defs>
<clipPath id="clip0_2494_8423">
<rect width="70" height="66.7868" fill="white" transform="translate(41.8335 29.6066)"/>
</clipPath>
</defs>
</svg>
