<svg width="153" height="126" viewBox="0 0 153 126" fill="none" xmlns="http://www.w3.org/2000/svg">
<g clip-path="url(#clip0_2494_8419)">
<path d="M64.2693 97.3097C64.2693 97.3097 70.4721 92.7354 74.429 83.441C76.8304 77.8021 77.511 75.7167 77.9825 71.9347C78.1623 70.6806 78.5609 70.4764 79.1394 70.5687C79.7179 70.6611 79.9755 71.1472 79.4505 73.7236C78.9255 76.3 78.5075 81.1271 80.238 82.8625C80.238 82.8625 84.8464 88.6958 90.9033 82.284C92.9936 80.0771 93.1103 75.5611 97.7866 71.9882C97.7866 71.9882 105.613 67.2632 102.828 62.2174C100.042 57.1715 94.6318 58.4889 90.9033 59.7868C87.1748 61.0847 85.6485 59.2618 85.5998 58.8924C85.5512 58.5229 85.5998 57.6868 88.2783 57.0549C90.9568 56.4229 97.0283 55.1104 98.0005 54.9549C98.9728 54.7993 103.664 53.7007 103.43 48.1833C103.197 42.666 97.9471 41.0326 96.1387 39.0931C94.3304 37.1535 93.3728 32.9583 90.7478 31.6458C88.1228 30.3333 83.2325 28.4861 79.7665 34.7472C78.3082 37.4257 79.3484 41.5236 79.3484 41.5236C79.3484 41.5236 80.1359 45.8986 79.188 47.0896C78.2401 48.2806 76.3005 49.6125 75.5665 46.6035C74.8325 43.5944 75.9846 37.7757 74.6721 33.5222C73.3596 29.2687 70.5741 28.2868 67.9491 28.0243C65.3241 27.7618 62.6019 29.8618 60.8033 33.9597C59.0047 38.0576 59.345 39.5792 54.2408 42.0486C49.1366 44.5181 50.838 49.7146 51.2464 51.0319C51.6547 52.3493 53.4485 56.2819 58.2853 56.0194C63.1221 55.7569 63.7978 54.075 65.6353 54.6C67.4728 55.125 67.3172 56.3354 67.1616 56.6514C67.0061 56.9674 66.0047 59.1111 61.5908 57.9639C57.1769 56.8167 52.0339 57.2299 50.3519 60.5354C48.67 63.841 49.8658 66.4222 52.136 68.2597C54.4061 70.0972 55.3394 71.4097 55.3929 73.8257C55.4464 76.2417 57.3373 79.8146 59.8603 80.4465C62.3832 81.0785 65.5866 81.1271 68.3186 75.8236C71.0505 70.5201 72.1491 70.0972 72.6936 69.8882C73.238 69.6792 74.429 69.4653 74.22 71.6188C74.0109 73.7722 72.1248 79.9215 68.4741 84.1215C65.6859 87.2661 62.5087 90.0431 59.0193 92.3854C57.3373 93.5424 58.3339 94.116 58.8589 94.8549C59.5665 95.7836 60.3591 96.6445 61.2262 97.4264C61.8533 97.9368 62.5387 98.4861 64.2693 97.3097Z" fill="#BCA986"/>
</g>
<defs>
<clipPath id="clip0_2494_8419">
<rect width="53.8708" height="70" fill="white" transform="translate(49.5645 28)"/>
</clipPath>
</defs>
</svg>
