<svg width="153" height="126" viewBox="0 0 153 126" fill="none" xmlns="http://www.w3.org/2000/svg">
<g clip-path="url(#clip0_2494_8415)">
<path d="M102.069 62.096C103.973 65.314 103.288 68.4835 100.922 70.5932C100.093 71.3105 99.1187 71.8395 98.0658 72.1439C97.3798 72.3404 96.7661 72.733 96.3 73.2736C95.834 73.8142 95.5359 74.4792 95.4423 75.187L95.2819 76.5821C94.0139 80.5099 90.1079 80.4127 86.0512 79.1245C81.5281 77.6661 80.6585 71.5897 78.7637 67.7543C78.5742 67.38 78.3022 66.9425 78.0155 66.4759C78.7346 72.7953 74.3718 91.5106 72.1856 97.6161C71.8358 98.5884 66.924 97.4898 69.2366 96.6974C76.0722 79.5279 76.1694 69.2564 76.2714 64.512C76.1208 64.546 76.2714 64.512 76.0868 64.6238C75.4698 65.596 75.1977 67.3606 74.9208 68.7849C73.7937 74.4967 71.69 74.9877 69.1977 77.9189C66.7686 80.7675 62.4253 82.0654 60.3168 79.6981C59.4867 78.7158 58.9037 77.5491 58.6164 76.2953C58.5123 75.8438 58.2735 75.4346 57.9316 75.1221C57.5897 74.8095 57.161 74.6084 56.7022 74.5453C56.1192 74.4724 55.2447 74.5842 54.3313 74.0592C49.9589 71.5411 50.8577 68.2259 52.1354 64.1717C53.5686 59.646 59.3257 59.4515 63.154 57.5363C64.4478 56.8212 65.6854 56.0086 66.856 55.1057C65.382 54.3321 63.7777 53.8377 62.124 53.6474C56.5613 53.2779 53.2382 51.5522 50.5273 47.5856C48.4188 44.489 48.8512 41.1786 51.222 39.0738C52.2356 38.2068 53.4526 37.6113 54.7589 37.3432C55.175 37.2497 55.5521 37.03 55.839 36.7143C56.1259 36.3985 56.3086 36.002 56.3621 35.5786C56.4663 34.7371 56.6286 33.9039 56.8479 33.0849C58.0479 28.4911 62.469 28.7099 66.5014 29.9689C71.039 31.4029 71.4568 38.0772 73.371 41.9078C74.089 43.2003 74.9009 44.4384 75.8002 45.612C76.5432 44.1277 77.0232 42.5257 77.2188 40.8772C77.8261 34.8932 80.1338 31.4953 83.8941 29.2786C87.1103 27.3731 89.7241 27.5967 91.8277 29.9689C92.6307 30.9137 93.1999 32.0345 93.4892 33.2404C93.6152 33.7313 93.8827 34.1742 94.2585 34.5139C94.6344 34.8536 95.1018 35.0752 95.6026 35.1509C96.3408 35.2628 97.0723 35.4154 97.7937 35.6078C102.385 36.8085 102.71 41.4411 100.709 45.1647C97.9103 50.2835 91.9103 50.614 89.0002 52.1356C87.7106 52.8577 86.4735 53.6699 85.2981 54.5661C86.781 55.3127 88.3821 55.7962 90.0301 55.9953C96.001 56.5835 99.8536 58.3432 102.069 62.096Z" fill="#BCA986"/>
</g>
<defs>
<clipPath id="clip0_2494_8415">
<rect width="54" height="70" fill="white" transform="translate(49.1667 28)"/>
</clipPath>
</defs>
</svg>
