<?xml version="1.0" standalone="no"?>
<!DOCTYPE svg PUBLIC "-//W3C//DTD SVG 20010904//EN"
 "http://www.w3.org/TR/2001/REC-SVG-20010904/DTD/svg10.dtd">
<svg version="1.0" xmlns="http://www.w3.org/2000/svg"
 width="288.000000pt" height="288.000000pt" viewBox="0 0 288.000000 288.000000"
 preserveAspectRatio="xMidYMid meet">
<metadata>
Created by potrace 1.14, written by Peter Selinger 2001-2017
</metadata>
<g transform="translate(0.000000,288.000000) scale(0.100000,-0.100000)"
fill="#000000" stroke="none">
<path d="M692 2825 c-281 -65 -602 -375 -676 -655 -19 -71 -14 -218 8 -285 48
-139 150 -243 321 -328 67 -33 144 -62 196 -73 85 -18 174 -34 200 -36 52 -4
41 -15 -24 -23 -34 -5 -64 -9 -67 -10 -3 -1 -25 -5 -50 -9 -233 -43 -457 -182
-538 -333 -48 -92 -62 -152 -58 -256 7 -202 129 -409 341 -583 168 -137 338
-204 503 -198 164 7 295 80 403 226 95 128 147 256 171 423 12 86 22 107 26
58 4 -48 33 -183 51 -236 49 -141 145 -288 235 -359 126 -100 296 -136 461
-97 229 53 515 298 626 538 97 209 66 442 -77 585 -90 90 -246 178 -375 211
-69 18 -79 20 -184 39 l-70 13 40 7 c22 5 72 15 110 23 39 8 80 16 93 19 87
18 230 89 322 159 208 160 257 420 127 670 -47 90 -101 161 -197 255 -175 174
-344 259 -530 266 -200 7 -345 -67 -459 -235 -84 -124 -151 -311 -168 -471 -3
-33 -10 -63 -16 -67 -6 -3 -8 -2 -5 3 5 8 -2 60 -27 189 -11 55 -56 188 -82
239 -115 227 -262 332 -478 341 -57 3 -113 -1 -153 -10z"/>
</g>
</svg>
