<svg width="506" height="211" viewBox="0 0 506 211" fill="none" xmlns="http://www.w3.org/2000/svg">
<path d="M404.685 0C355.807 0 317.279 27.5301 306.425 76.8758C296.326 27.0269 258.086 0 207.805 0C153.895 0 112.6 33.4602 107.173 92.7253V5.31913C107.173 2.92312 106.059 1.72512 103.831 1.72512H97.0381C96.1103 1.63147 95.1824 1.9021 94.4505 2.47986C93.9473 2.98302 90.5689 5.10349 90.5689 5.10349C90.5689 5.10349 77.2352 14.0526 64.0452 21.1687C51.797 28.1023 38.7345 33.4867 25.158 37.198L3.34243 42.9124C3.34243 42.9124 0 43.9547 0 45.9673V52.7241C0 54.7367 1.11414 55.779 3.34243 55.779H25.3377V174.776C25.4623 178.42 25.0012 182.061 23.972 185.559C22.9153 188.255 21.0432 190.554 18.6169 192.136C14.2885 194.764 9.68455 196.909 4.88785 198.533C3.98486 198.721 3.17954 199.227 2.61876 199.96C2.05798 200.692 1.77908 201.601 1.83294 202.522V206.116C1.83294 208.165 3.0549 209.171 5.42695 209.171H126.94C129.384 209.171 130.534 208.165 130.534 206.116V202.522C130.588 201.601 130.309 200.692 129.748 199.96C129.188 199.227 128.382 198.721 127.479 198.533C123.043 197.069 118.758 195.179 114.685 192.89C112.065 191.432 109.976 189.179 108.719 186.457C107.401 182.686 106.827 178.694 107.029 174.705V120.004C112.456 178.694 152.961 210.752 207.662 210.752C256.756 210.752 295.176 183.654 305.922 134.056C316.272 183.797 354.477 210.752 404.685 210.752C462.836 210.752 506 172.8 506 104.442C506 37.0183 463.627 0 404.685 0ZM257.331 133.697C255.671 135.127 253.722 136.181 251.616 136.788C250.232 137.166 248.992 137.95 248.057 139.039C247.121 140.128 246.534 141.472 246.369 142.898L246.01 145.701C243.494 153.572 235.659 153.356 227.572 150.804C218.48 147.929 216.79 135.674 212.909 127.983C212.514 127.228 211.974 126.365 211.399 125.431C212.837 138.082 204.211 175.747 199.719 187.859C199.036 189.799 189.152 187.607 193.789 186.026C207.482 151.595 207.698 131.001 207.877 121.334C207.59 121.334 207.877 121.334 207.518 121.585C206.283 124.216 205.494 127.034 205.182 129.923C202.918 141.352 198.713 142.359 193.717 148.217C188.721 154.075 180.096 156.555 175.747 151.811C174.063 149.851 172.89 147.505 172.333 144.982C172.141 144.059 171.669 143.219 170.98 142.575C170.291 141.932 169.421 141.517 168.487 141.388C166.852 141.429 165.23 141.097 163.743 140.418C154.938 135.35 156.771 128.665 159.322 120.579C162.197 111.486 173.698 111.127 181.425 107.281C184.021 105.848 186.507 104.226 188.865 102.429C185.903 100.902 182.688 99.9279 179.377 99.554C168.199 98.7273 161.407 95.313 156.088 87.3343C154.097 84.8479 153.133 81.6942 153.394 78.5199C153.655 75.3456 155.12 72.3912 157.489 70.2628C159.539 68.4699 162.013 67.2324 164.677 66.6688C165.523 66.4802 166.289 66.0327 166.869 65.3886C167.449 64.7445 167.813 63.9357 167.912 63.0748C168.151 61.5219 168.487 59.9854 168.918 58.4745C171.326 49.2738 180.203 49.6692 188.29 52.2568C197.347 55.132 198.209 68.5017 202.055 76.157C203.475 78.7602 205.097 81.2477 206.907 83.5966C208.39 80.62 209.351 77.4105 209.746 74.1084C210.968 62.1044 215.64 55.3117 223.152 50.8552C229.585 47.0455 234.832 47.4768 239.037 52.2209C240.666 54.1113 241.813 56.3679 242.38 58.7979C242.643 59.7812 243.188 60.666 243.948 61.343C244.708 62.02 245.65 62.4596 246.657 62.6076C247.771 62.6076 249.208 63.0748 251.041 63.542C260.242 65.95 260.925 75.2585 256.828 82.6981C251.221 92.9769 239.217 93.4801 233.359 96.6787C230.769 98.1201 228.283 99.7414 225.919 101.531C228.896 103.021 232.104 103.993 235.407 104.406C247.411 105.592 255.174 109.114 259.595 116.625C261.407 119.235 262.189 122.423 261.79 125.575C261.392 128.727 259.842 131.62 257.439 133.697H257.331ZM451.874 114.541C460.716 120.723 465.316 135.278 449.502 150.661C433.689 166.043 418.773 161.443 412.412 152.961C408.567 147.714 405.979 143.329 404.577 131.397C403.176 143.401 400.624 147.786 396.778 152.961C390.417 161.551 375.502 166.043 359.688 150.661C343.874 135.278 348.475 120.723 357.316 114.721C362.671 110.947 368.098 108.467 380.533 107.101C368.17 105.736 362.563 103.256 357.316 99.4821C348.475 93.3004 343.874 78.7806 359.688 63.542C375.502 48.3034 390.417 52.76 396.778 61.2059C400.624 66.4532 403.176 71.9879 404.577 84.2076C405.979 72.1676 408.567 66.4532 412.412 61.2059C418.773 52.6162 433.725 48.1237 449.502 63.542C465.28 78.9603 460.716 93.4441 451.874 99.4821C446.519 103.256 441.667 105.736 429.304 107.101C441.775 108.287 446.627 110.767 451.982 114.541H451.874Z" fill="#BCA986"/>
</svg>
