<svg width="13" height="15" viewBox="0 0 13 15" fill="none" xmlns="http://www.w3.org/2000/svg">
<path d="M12.75 9.9375V2.0625C12.75 1.35156 12.1484 0.75 11.4375 0.75H3.125C1.64844 0.75 0.5 1.92578 0.5 3.375V12.125C0.5 13.6016 1.64844 14.75 3.125 14.75H11.875C12.3398 14.75 12.75 14.3672 12.75 13.9023C12.75 13.6016 12.5586 13.3281 12.3125 13.1641V10.9492C12.5586 10.6758 12.75 10.3477 12.75 9.9375ZM4.41016 4.25H9.66016C9.90625 4.25 10.125 4.46875 10.125 4.6875C10.125 4.93359 9.90625 5.125 9.6875 5.125H4.41016C4.19141 5.125 4 4.93359 4 4.6875C4 4.46875 4.19141 4.25 4.41016 4.25ZM4.41016 6H9.66016C9.90625 6 10.125 6.21875 10.125 6.4375C10.125 6.68359 9.90625 6.875 9.6875 6.875H4.41016C4.19141 6.875 4 6.68359 4 6.4375C4 6.21875 4.19141 6 4.41016 6ZM11 13H3.125C2.63281 13 2.25 12.6172 2.25 12.125C2.25 11.6602 2.63281 11.25 3.125 11.25H11V13Z" fill="#BCA986"/>
</svg>
