<svg width="17" height="16" viewBox="0 0 17 16" fill="none" xmlns="http://www.w3.org/2000/svg">
<path d="M10.5625 8.625H1.34766C0.882812 8.625 0.5 9.03516 0.5 9.5C0.5 9.9375 0.882812 10.375 1.34766 10.375H2.22266L2.25 13.4375C2.25 14.1758 2.82422 14.75 3.5625 14.75H10.5625C11.2734 14.75 11.875 14.1758 11.875 13.4375V9.9375C11.875 9.22656 11.2734 8.625 10.5625 8.625ZM10.125 0.75C8.78516 0.75 7.63672 1.51562 7.0625 2.60938C6.46094 1.51562 5.3125 0.75 4 0.75C2.05859 0.75 0.5 2.33594 0.5 4.25C0.5 6.19141 2.05859 7.75 3.97266 7.75H10.125C12.0391 7.75 13.625 6.19141 13.625 4.25C13.625 2.33594 12.0391 0.75 10.125 0.75ZM4 6C3.01562 6 2.25 5.23438 2.25 4.25C2.25 3.29297 3.01562 2.5 4 2.5C4.95703 2.5 5.75 3.29297 5.75 4.25C5.75 5.23438 4.95703 6 4 6ZM10.125 6C9.14062 6 8.375 5.23438 8.375 4.25C8.375 3.29297 9.14062 2.5 10.125 2.5C11.082 2.5 11.875 3.29297 11.875 4.25C11.875 5.23438 11.082 6 10.125 6ZM14.8281 7.94141L12.75 9.5V13L14.8281 14.5859C15.4023 15.0234 16.25 14.6133 16.25 13.875V8.625C16.25 7.91406 15.4023 7.50391 14.8281 7.94141Z" fill="#BCA986"/>
</svg>
