<svg width="16" height="13" viewBox="0 0 16 13" fill="none" xmlns="http://www.w3.org/2000/svg">
<path d="M11.6406 4.22656C11.3672 4.00781 10.957 4.0625 10.7109 4.33594C10.4922 4.60938 10.5195 5.01953 10.8203 5.26562C11.1211 5.51172 11.3125 5.86719 11.3125 6.25C11.3125 6.66016 11.1211 7.01562 10.8203 7.26172C10.5195 7.50781 10.4922 7.91797 10.7109 8.19141C10.8477 8.35547 11.0391 8.4375 11.2305 8.4375C11.3672 8.4375 11.5312 8.38281 11.6406 8.30078C12.2695 7.78125 12.625 7.04297 12.625 6.25C12.625 5.48438 12.2695 4.74609 11.6406 4.22656ZM13.3086 2.20312C13.0078 1.98438 12.5977 2.03906 12.3789 2.3125C12.1328 2.58594 12.1875 2.99609 12.4609 3.24219C13.3906 3.98047 13.9375 5.10156 13.9375 6.25C13.9375 7.42578 13.3906 8.54688 12.4609 9.28516C12.1875 9.53125 12.1328 9.94141 12.3789 10.2148C12.5156 10.3789 12.6797 10.4609 12.8711 10.4609C13.0352 10.4609 13.1719 10.4062 13.3086 10.3242C14.5391 9.3125 15.25 7.83594 15.25 6.25C15.25 4.69141 14.5391 3.21484 13.3086 2.20312ZM8.60547 0.207031C8.27734 0.0703125 7.92188 0.125 7.64844 0.371094L3.95703 3.625H1.6875C0.949219 3.625 0.375 4.22656 0.375 4.9375V7.53516C0.375 8.24609 0.949219 8.82031 1.6875 8.82031H3.95703L7.64844 12.1016C7.8125 12.3203 8.03125 12.375 8.25 12.375C8.35938 12.375 8.46875 12.375 8.60547 12.3203C8.90625 12.1562 9.125 11.8555 9.125 11.5V1C9.125 0.671875 8.90625 0.34375 8.60547 0.207031Z" fill="#BCA986"/>
</svg>
